# xmcd CD database file
# Copyright (C) 1993-1996 Ti Kan
#
# Track frame offsets:
#	182
#	18792
#	37097
#
# Disc length: 767 seconds
#
# Revision: 1
# Processed by: cddbd v1.4b41PL1 Copyright (c) Steve Scherf et al.
# Submitted via: CDValet v3.01 - Copyright (c) 1997 Greg Leichner
#
DISCID=1a02fd03
DTITLE=Dru Hill - Never Make A Promise
DYEAR=1900
DGENRE=
TTITLE0=Never Make A Promise (Radio Edit)
TTITLE1=In My Bed - (So So Def Mix)
TTITLE2=Never Make A Promise (Hex Hector Rasio Edit)
EXTD=
EXTT0=
EXTT1=
EXTT2=
PLAYORDER=
